<svg width="56" height="56" viewBox="0 0 56 56" fill="none" xmlns="http://www.w3.org/2000/svg">
<path d="M0 28C0 12.536 12.536 0 28 0C43.464 0 56 12.536 56 28C56 43.464 43.464 56 28 56C12.536 56 0 43.464 0 28Z" fill="#26272B"/>
<path d="M28 55.75C12.6741 55.75 0.25 43.3259 0.25 28C0.25 12.6741 12.6741 0.25 28 0.25C43.3259 0.25 55.75 12.6741 55.75 28C55.75 43.3259 43.3259 55.75 28 55.75Z" stroke="white" stroke-opacity="0.12" stroke-width="0.5"/>
<path d="M40.4443 42C40.4443 39.8291 40.4443 38.7437 40.1764 37.8604C39.5731 35.8718 38.0169 34.3156 36.0283 33.7124C35.1451 33.4444 34.0596 33.4444 31.8887 33.4444H24.111C21.9401 33.4444 20.8547 33.4444 19.9714 33.7124C17.9828 34.3156 16.4266 35.8718 15.8233 37.8604C15.5554 38.7437 15.5554 39.8291 15.5554 42M34.9999 21C34.9999 24.866 31.8659 28 27.9999 28C24.1339 28 20.9999 24.866 20.9999 21C20.9999 17.134 24.1339 14 27.9999 14C31.8659 14 34.9999 17.134 34.9999 21Z" stroke="#A0A0AB" stroke-width="1.33333" stroke-linecap="round" stroke-linejoin="round"/>
</svg>
